<?xml version="1.0" encoding="utf-8" standalone="no"?>
<!DOCTYPE svg PUBLIC "-//W3C//DTD SVG 1.1//EN"
  "http://www.w3.org/Graphics/SVG/1.1/DTD/svg11.dtd">
<svg xmlns:xlink="http://www.w3.org/1999/xlink" width="431.965781pt" height="194.375937pt" viewBox="0 0 431.965781 194.375937" xmlns="http://www.w3.org/2000/svg" version="1.1">
 <metadata>
  <rdf:RDF xmlns:dc="http://purl.org/dc/elements/1.1/" xmlns:cc="http://creativecommons.org/ns#" xmlns:rdf="http://www.w3.org/1999/02/22-rdf-syntax-ns#">
   <cc:Work>
    <dc:type rdf:resource="http://purl.org/dc/dcmitype/StillImage"/>
    <dc:date>2026-05-14T23:34:55.589214</dc:date>
    <dc:format>image/svg+xml</dc:format>
    <dc:creator>
     <cc:Agent>
      <dc:title>Matplotlib v3.10.8, https://matplotlib.org/</dc:title>
     </cc:Agent>
    </dc:creator>
   </cc:Work>
  </rdf:RDF>
 </metadata>
 <defs>
  <style type="text/css">*{stroke-linejoin: round; stroke-linecap: butt}</style>
 </defs>
 <g id="figure_1">
  <g id="patch_1">
   <path d="M 0 194.375937 
L 431.965781 194.375937 
L 431.965781 0 
L 0 0 
z
" style="fill: #ffffff"/>
  </g>
  <g id="axes_1">
   <g id="patch_2">
    <path d="M 106.065781 154.1 
L 260.645781 154.1 
L 260.645781 21.2 
L 106.065781 21.2 
z
" style="fill: #ffffff"/>
   </g>
   <g id="matplotlib.axis_1">
    <g id="xtick_1">
     <g id="line2d_1">
      <path d="M 106.065781 154.1 
L 106.065781 21.2 
" clip-path="url(#p5286beb4b3)" style="fill: none; stroke-dasharray: 1.85,0.8; stroke-dashoffset: 0; stroke: #808080; stroke-opacity: 0.6; stroke-width: 0.5"/>
     </g>
     <g id="text_1">
      <text style="font-size: 10px; font-family: 'Linux Libertine'; text-anchor: middle; fill: #262626" x="106.065781" y="170.582812" transform="rotate(-0 106.065781 170.582812)">0</text>
     </g>
    </g>
    <g id="xtick_2">
     <g id="line2d_2">
      <path d="M 138.269948 154.1 
L 138.269948 21.2 
" clip-path="url(#p5286beb4b3)" style="fill: none; stroke-dasharray: 1.85,0.8; stroke-dashoffset: 0; stroke: #808080; stroke-opacity: 0.6; stroke-width: 0.5"/>
     </g>
     <g id="text_2">
      <text style="font-size: 10px; font-family: 'Linux Libertine'; text-anchor: middle; fill: #262626" x="138.269948" y="170.582812" transform="rotate(-0 138.269948 170.582812)">2500</text>
     </g>
    </g>
    <g id="xtick_3">
     <g id="line2d_3">
      <path d="M 170.474115 154.1 
L 170.474115 21.2 
" clip-path="url(#p5286beb4b3)" style="fill: none; stroke-dasharray: 1.85,0.8; stroke-dashoffset: 0; stroke: #808080; stroke-opacity: 0.6; stroke-width: 0.5"/>
     </g>
     <g id="text_3">
      <text style="font-size: 10px; font-family: 'Linux Libertine'; text-anchor: middle; fill: #262626" x="170.474115" y="170.582812" transform="rotate(-0 170.474115 170.582812)">5000</text>
     </g>
    </g>
    <g id="xtick_4">
     <g id="line2d_4">
      <path d="M 202.678281 154.1 
L 202.678281 21.2 
" clip-path="url(#p5286beb4b3)" style="fill: none; stroke-dasharray: 1.85,0.8; stroke-dashoffset: 0; stroke: #808080; stroke-opacity: 0.6; stroke-width: 0.5"/>
     </g>
     <g id="text_4">
      <text style="font-size: 10px; font-family: 'Linux Libertine'; text-anchor: middle; fill: #262626" x="202.678281" y="170.582812" transform="rotate(-0 202.678281 170.582812)">7500</text>
     </g>
    </g>
    <g id="xtick_5">
     <g id="line2d_5">
      <path d="M 234.882448 154.1 
L 234.882448 21.2 
" clip-path="url(#p5286beb4b3)" style="fill: none; stroke-dasharray: 1.85,0.8; stroke-dashoffset: 0; stroke: #808080; stroke-opacity: 0.6; stroke-width: 0.5"/>
     </g>
     <g id="text_5">
      <text style="font-size: 10px; font-family: 'Linux Libertine'; text-anchor: middle; fill: #262626" x="234.882448" y="170.582812" transform="rotate(-0 234.882448 170.582812)">10000</text>
     </g>
    </g>
    <g id="text_6">
     <text style="font-size: 11px; font-family: 'Linux Libertine'; text-anchor: middle; fill: #262626" x="183.355781" y="184.602969" transform="rotate(-0 183.355781 184.602969)">TTFT (ms)</text>
    </g>
   </g>
   <g id="matplotlib.axis_2">
    <g id="ytick_1">
     <g id="text_7">
      <text style="font-size: 9px; font-family: 'Linux Libertine'; text-anchor: end; fill: #262626" x="96.565781" y="31.725599" transform="rotate(-0 96.565781 31.725599)">LLama3.1 - Short</text>
     </g>
    </g>
    <g id="ytick_2">
     <g id="text_8">
      <text style="font-size: 9px; font-family: 'Linux Libertine'; text-anchor: end; fill: #262626" x="96.565781" y="46.492266" transform="rotate(-0 96.565781 46.492266)">LLama3.1 - Medium</text>
     </g>
    </g>
    <g id="ytick_3">
     <g id="text_9">
      <text style="font-size: 9px; font-family: 'Linux Libertine'; text-anchor: end; fill: #262626" x="96.565781" y="61.241354" transform="rotate(-0 96.565781 61.241354)">LLama3.1 - Long</text>
     </g>
    </g>
    <g id="ytick_4">
     <g id="text_10">
      <text style="font-size: 9px; font-family: 'Linux Libertine'; text-anchor: end; fill: #262626" x="96.565781" y="76.025599" transform="rotate(-0 96.565781 76.025599)">DeepseekV3.2 - Short</text>
     </g>
    </g>
    <g id="ytick_5">
     <g id="text_11">
      <text style="font-size: 9px; font-family: 'Linux Libertine'; text-anchor: end; fill: #262626" x="96.565781" y="90.792266" transform="rotate(-0 96.565781 90.792266)">DeepseekV3.2 - Medium</text>
     </g>
    </g>
    <g id="ytick_6">
     <g id="text_12">
      <text style="font-size: 9px; font-family: 'Linux Libertine'; text-anchor: end; fill: #262626" x="96.565781" y="105.558932" transform="rotate(-0 96.565781 105.558932)">DeepseekV3.2 - Long</text>
     </g>
    </g>
    <g id="ytick_7">
     <g id="text_13">
      <text style="font-size: 9px; font-family: 'Linux Libertine'; text-anchor: end; fill: #262626" x="96.565781" y="120.325599" transform="rotate(-0 96.565781 120.325599)">Granite4.1 - Short</text>
     </g>
    </g>
    <g id="ytick_8">
     <g id="text_14">
      <text style="font-size: 9px; font-family: 'Linux Libertine'; text-anchor: end; fill: #262626" x="96.565781" y="135.092266" transform="rotate(-0 96.565781 135.092266)">Granite4.1 - Medium</text>
     </g>
    </g>
    <g id="ytick_9">
     <g id="text_15">
      <text style="font-size: 9px; font-family: 'Linux Libertine'; text-anchor: end; fill: #262626" x="96.565781" y="149.841354" transform="rotate(-0 96.565781 149.841354)">Granite4.1 - Long</text>
     </g>
    </g>
   </g>
   <g id="patch_3">
    <path d="M 106.065781 23.267333 
L 116.758137 23.267333 
L 116.758137 28.583333 
L 106.065781 28.583333 
z
" clip-path="url(#p5286beb4b3)" style="fill: #58789c; stroke: #000000; stroke-width: 0.4; stroke-linejoin: miter"/>
   </g>
   <g id="patch_4">
    <path d="M 106.065781 38.034 
L 124.922752 38.034 
L 124.922752 43.35 
L 106.065781 43.35 
z
" clip-path="url(#p5286beb4b3)" style="fill: #58789c; stroke: #000000; stroke-width: 0.4; stroke-linejoin: miter"/>
   </g>
   <g id="patch_5">
    <path d="M 106.065781 52.800667 
L 157.288297 52.800667 
L 157.288297 58.116667 
L 106.065781 58.116667 
z
" clip-path="url(#p5286beb4b3)" style="fill: #58789c; stroke: #000000; stroke-width: 0.4; stroke-linejoin: miter"/>
   </g>
   <g id="patch_6">
    <path d="M 106.065781 67.567333 
L 121.243247 67.567333 
L 121.243247 72.883333 
L 106.065781 72.883333 
z
" clip-path="url(#p5286beb4b3)" style="fill: #58789c; stroke: #000000; stroke-width: 0.4; stroke-linejoin: miter"/>
   </g>
   <g id="patch_7">
    <path d="M 106.065781 82.334 
L 128.855954 82.334 
L 128.855954 87.65 
L 106.065781 87.65 
z
" clip-path="url(#p5286beb4b3)" style="fill: #58789c; stroke: #000000; stroke-width: 0.4; stroke-linejoin: miter"/>
   </g>
   <g id="patch_8">
    <path d="M 106.065781 97.100667 
L 193.85255 97.100667 
L 193.85255 102.416667 
L 106.065781 102.416667 
z
" clip-path="url(#p5286beb4b3)" style="fill: #58789c; stroke: #000000; stroke-width: 0.4; stroke-linejoin: miter"/>
   </g>
   <g id="patch_9">
    <path d="M 106.065781 111.867333 
L 121.227861 111.867333 
L 121.227861 117.183333 
L 106.065781 117.183333 
z
" clip-path="url(#p5286beb4b3)" style="fill: #58789c; stroke: #000000; stroke-width: 0.4; stroke-linejoin: miter"/>
   </g>
   <g id="patch_10">
    <path d="M 106.065781 126.634 
L 148.96853 126.634 
L 148.96853 131.95 
L 106.065781 131.95 
z
" clip-path="url(#p5286beb4b3)" style="fill: #58789c; stroke: #000000; stroke-width: 0.4; stroke-linejoin: miter"/>
   </g>
   <g id="patch_11">
    <path d="M 106.065781 141.400667 
L 229.671814 141.400667 
L 229.671814 146.716667 
L 106.065781 146.716667 
z
" clip-path="url(#p5286beb4b3)" style="fill: #58789c; stroke: #000000; stroke-width: 0.4; stroke-linejoin: miter"/>
   </g>
   <g id="patch_12">
    <path d="M 106.065781 28.583333 
L 117.671089 28.583333 
L 117.671089 33.899333 
L 106.065781 33.899333 
z
" clip-path="url(#p5286beb4b3)" style="fill: #d26968; stroke: #000000; stroke-width: 0.4; stroke-linejoin: miter"/>
   </g>
   <g id="patch_13">
    <path d="M 106.065781 43.35 
L 125.09415 43.35 
L 125.09415 48.666 
L 106.065781 48.666 
z
" clip-path="url(#p5286beb4b3)" style="fill: #d26968; stroke: #000000; stroke-width: 0.4; stroke-linejoin: miter"/>
   </g>
   <g id="patch_14">
    <path d="M 106.065781 58.116667 
L 150.877521 58.116667 
L 150.877521 63.432667 
L 106.065781 63.432667 
z
" clip-path="url(#p5286beb4b3)" style="fill: #d26968; stroke: #000000; stroke-width: 0.4; stroke-linejoin: miter"/>
   </g>
   <g id="patch_15">
    <path d="M 106.065781 72.883333 
L 121.433967 72.883333 
L 121.433967 78.199333 
L 106.065781 78.199333 
z
" clip-path="url(#p5286beb4b3)" style="fill: #d26968; stroke: #000000; stroke-width: 0.4; stroke-linejoin: miter"/>
   </g>
   <g id="patch_16">
    <path d="M 106.065781 87.65 
L 128.511012 87.65 
L 128.511012 92.966 
L 106.065781 92.966 
z
" clip-path="url(#p5286beb4b3)" style="fill: #d26968; stroke: #000000; stroke-width: 0.4; stroke-linejoin: miter"/>
   </g>
   <g id="patch_17">
    <path d="M 106.065781 102.416667 
L 190.099334 102.416667 
L 190.099334 107.732667 
L 106.065781 107.732667 
z
" clip-path="url(#p5286beb4b3)" style="fill: #d26968; stroke: #000000; stroke-width: 0.4; stroke-linejoin: miter"/>
   </g>
   <g id="patch_18">
    <path d="M 106.065781 117.183333 
L 122.313499 117.183333 
L 122.313499 122.499333 
L 106.065781 122.499333 
z
" clip-path="url(#p5286beb4b3)" style="fill: #d26968; stroke: #000000; stroke-width: 0.4; stroke-linejoin: miter"/>
   </g>
   <g id="patch_19">
    <path d="M 106.065781 131.95 
L 150.388376 131.95 
L 150.388376 137.266 
L 106.065781 137.266 
z
" clip-path="url(#p5286beb4b3)" style="fill: #d26968; stroke: #000000; stroke-width: 0.4; stroke-linejoin: miter"/>
   </g>
   <g id="patch_20">
    <path d="M 106.065781 146.716667 
L 229.495406 146.716667 
L 229.495406 152.032667 
L 106.065781 152.032667 
z
" clip-path="url(#p5286beb4b3)" style="fill: #d26968; stroke: #000000; stroke-width: 0.4; stroke-linejoin: miter"/>
   </g>
   <g id="patch_21">
    <path d="M 106.065781 28.583333 
L 106.065781 28.583333 
L 106.065781 28.583333 
L 106.065781 28.583333 
z
" clip-path="url(#p5286beb4b3)" style="fill: #58789c; stroke: #000000; stroke-width: 0.4; stroke-linejoin: miter"/>
   </g>
   <g id="patch_22">
    <path d="M 106.065781 28.583333 
L 106.065781 28.583333 
L 106.065781 28.583333 
L 106.065781 28.583333 
z
" clip-path="url(#p5286beb4b3)" style="fill: #d26968; stroke: #000000; stroke-width: 0.4; stroke-linejoin: miter"/>
   </g>
   <g id="patch_23">
    <path d="M 106.065781 154.1 
L 106.065781 21.2 
" style="fill: none; stroke: #000000; stroke-width: 0.6; stroke-linejoin: miter; stroke-linecap: square"/>
   </g>
   <g id="patch_24">
    <path d="M 260.645781 154.1 
L 260.645781 21.2 
" style="fill: none; stroke: #000000; stroke-width: 0.6; stroke-linejoin: miter; stroke-linecap: square"/>
   </g>
   <g id="patch_25">
    <path d="M 106.065781 154.1 
L 260.645781 154.1 
" style="fill: none; stroke: #000000; stroke-width: 0.6; stroke-linejoin: miter; stroke-linecap: square"/>
   </g>
   <g id="patch_26">
    <path d="M 106.065781 21.2 
L 260.645781 21.2 
" style="fill: none; stroke: #000000; stroke-width: 0.6; stroke-linejoin: miter; stroke-linecap: square"/>
   </g>
  </g>
  <g id="axes_2">
   <g id="patch_27">
    <path d="M 270.185781 154.1 
L 424.765781 154.1 
L 424.765781 21.2 
L 270.185781 21.2 
z
" style="fill: #ffffff"/>
   </g>
   <g id="matplotlib.axis_3">
    <g id="xtick_6">
     <g id="line2d_6">
      <path d="M 270.185781 154.1 
L 270.185781 21.2 
" clip-path="url(#p89a1994edd)" style="fill: none; stroke-dasharray: 1.85,0.8; stroke-dashoffset: 0; stroke: #808080; stroke-opacity: 0.6; stroke-width: 0.5"/>
     </g>
     <g id="text_16">
      <text style="font-size: 10px; font-family: 'Linux Libertine'; text-anchor: middle; fill: #262626" x="270.185781" y="170.582812" transform="rotate(-0 270.185781 170.582812)">0</text>
     </g>
    </g>
    <g id="xtick_7">
     <g id="line2d_7">
      <path d="M 327.282795 154.1 
L 327.282795 21.2 
" clip-path="url(#p89a1994edd)" style="fill: none; stroke-dasharray: 1.85,0.8; stroke-dashoffset: 0; stroke: #808080; stroke-opacity: 0.6; stroke-width: 0.5"/>
     </g>
     <g id="text_17">
      <text style="font-size: 10px; font-family: 'Linux Libertine'; text-anchor: middle; fill: #262626" x="327.282795" y="170.582812" transform="rotate(-0 327.282795 170.582812)">100</text>
     </g>
    </g>
    <g id="xtick_8">
     <g id="line2d_8">
      <path d="M 384.379809 154.1 
L 384.379809 21.2 
" clip-path="url(#p89a1994edd)" style="fill: none; stroke-dasharray: 1.85,0.8; stroke-dashoffset: 0; stroke: #808080; stroke-opacity: 0.6; stroke-width: 0.5"/>
     </g>
     <g id="text_18">
      <text style="font-size: 10px; font-family: 'Linux Libertine'; text-anchor: middle; fill: #262626" x="384.379809" y="170.582812" transform="rotate(-0 384.379809 170.582812)">200</text>
     </g>
    </g>
    <g id="text_19">
     <text style="font-size: 11px; font-family: 'Linux Libertine'; text-anchor: middle; fill: #262626" x="347.475781" y="184.602969" transform="rotate(-0 347.475781 184.602969)">TPOT (ms / token)</text>
    </g>
   </g>
   <g id="matplotlib.axis_4">
    <g id="ytick_10"/>
    <g id="ytick_11"/>
    <g id="ytick_12"/>
    <g id="ytick_13"/>
    <g id="ytick_14"/>
    <g id="ytick_15"/>
    <g id="ytick_16"/>
    <g id="ytick_17"/>
    <g id="ytick_18"/>
   </g>
   <g id="patch_28">
    <path d="M 270.185781 23.267333 
L 329.469986 23.267333 
L 329.469986 28.583333 
L 270.185781 28.583333 
z
" clip-path="url(#p89a1994edd)" style="fill: #58789c; stroke: #000000; stroke-width: 0.4; stroke-linejoin: miter"/>
   </g>
   <g id="patch_29">
    <path d="M 270.185781 38.034 
L 337.65453 38.034 
L 337.65453 43.35 
L 270.185781 43.35 
z
" clip-path="url(#p89a1994edd)" style="fill: #58789c; stroke: #000000; stroke-width: 0.4; stroke-linejoin: miter"/>
   </g>
   <g id="patch_30">
    <path d="M 270.185781 52.800667 
L 338.522479 52.800667 
L 338.522479 58.116667 
L 270.185781 58.116667 
z
" clip-path="url(#p89a1994edd)" style="fill: #58789c; stroke: #000000; stroke-width: 0.4; stroke-linejoin: miter"/>
   </g>
   <g id="patch_31">
    <path d="M 270.185781 67.567333 
L 334.61259 67.567333 
L 334.61259 72.883333 
L 270.185781 72.883333 
z
" clip-path="url(#p89a1994edd)" style="fill: #58789c; stroke: #000000; stroke-width: 0.4; stroke-linejoin: miter"/>
   </g>
   <g id="patch_32">
    <path d="M 270.185781 82.334 
L 338.89046 82.334 
L 338.89046 87.65 
L 270.185781 87.65 
z
" clip-path="url(#p89a1994edd)" style="fill: #58789c; stroke: #000000; stroke-width: 0.4; stroke-linejoin: miter"/>
   </g>
   <g id="patch_33">
    <path d="M 270.185781 97.100667 
L 339.531452 97.100667 
L 339.531452 102.416667 
L 270.185781 102.416667 
z
" clip-path="url(#p89a1994edd)" style="fill: #58789c; stroke: #000000; stroke-width: 0.4; stroke-linejoin: miter"/>
   </g>
   <g id="patch_34">
    <path d="M 270.185781 111.867333 
L 338.906205 111.867333 
L 338.906205 117.183333 
L 270.185781 117.183333 
z
" clip-path="url(#p89a1994edd)" style="fill: #58789c; stroke: #000000; stroke-width: 0.4; stroke-linejoin: miter"/>
   </g>
   <g id="patch_35">
    <path d="M 270.185781 126.634 
L 346.526631 126.634 
L 346.526631 131.95 
L 270.185781 131.95 
z
" clip-path="url(#p89a1994edd)" style="fill: #58789c; stroke: #000000; stroke-width: 0.4; stroke-linejoin: miter"/>
   </g>
   <g id="patch_36">
    <path d="M 270.185781 141.400667 
L 347.949251 141.400667 
L 347.949251 146.716667 
L 270.185781 146.716667 
z
" clip-path="url(#p89a1994edd)" style="fill: #58789c; stroke: #000000; stroke-width: 0.4; stroke-linejoin: miter"/>
   </g>
   <g id="patch_37">
    <path d="M 270.185781 28.583333 
L 334.473684 28.583333 
L 334.473684 33.899333 
L 270.185781 33.899333 
z
" clip-path="url(#p89a1994edd)" style="fill: #d26968; stroke: #000000; stroke-width: 0.4; stroke-linejoin: miter"/>
   </g>
   <g id="patch_38">
    <path d="M 270.185781 43.35 
L 361.362591 43.35 
L 361.362591 48.666 
L 270.185781 48.666 
z
" clip-path="url(#p89a1994edd)" style="fill: #d26968; stroke: #000000; stroke-width: 0.4; stroke-linejoin: miter"/>
   </g>
   <g id="patch_39">
    <path d="M 270.185781 58.116667 
L 367.075525 58.116667 
L 367.075525 63.432667 
L 270.185781 63.432667 
z
" clip-path="url(#p89a1994edd)" style="fill: #d26968; stroke: #000000; stroke-width: 0.4; stroke-linejoin: miter"/>
   </g>
   <g id="patch_40">
    <path d="M 270.185781 72.883333 
L 350.207005 72.883333 
L 350.207005 78.199333 
L 270.185781 78.199333 
z
" clip-path="url(#p89a1994edd)" style="fill: #d26968; stroke: #000000; stroke-width: 0.4; stroke-linejoin: miter"/>
   </g>
   <g id="patch_41">
    <path d="M 270.185781 87.65 
L 373.323119 87.65 
L 373.323119 92.966 
L 270.185781 92.966 
z
" clip-path="url(#p89a1994edd)" style="fill: #d26968; stroke: #000000; stroke-width: 0.4; stroke-linejoin: miter"/>
   </g>
   <g id="patch_42">
    <path d="M 270.185781 102.416667 
L 379.70917 102.416667 
L 379.70917 107.732667 
L 270.185781 107.732667 
z
" clip-path="url(#p89a1994edd)" style="fill: #d26968; stroke: #000000; stroke-width: 0.4; stroke-linejoin: miter"/>
   </g>
   <g id="patch_43">
    <path d="M 270.185781 117.183333 
L 346.692111 117.183333 
L 346.692111 122.499333 
L 270.185781 122.499333 
z
" clip-path="url(#p89a1994edd)" style="fill: #d26968; stroke: #000000; stroke-width: 0.4; stroke-linejoin: miter"/>
   </g>
   <g id="patch_44">
    <path d="M 270.185781 131.95 
L 382.894588 131.95 
L 382.894588 137.266 
L 270.185781 137.266 
z
" clip-path="url(#p89a1994edd)" style="fill: #d26968; stroke: #000000; stroke-width: 0.4; stroke-linejoin: miter"/>
   </g>
   <g id="patch_45">
    <path d="M 270.185781 146.716667 
L 389.002741 146.716667 
L 389.002741 152.032667 
L 270.185781 152.032667 
z
" clip-path="url(#p89a1994edd)" style="fill: #d26968; stroke: #000000; stroke-width: 0.4; stroke-linejoin: miter"/>
   </g>
   <g id="patch_46">
    <path d="M 270.185781 28.583333 
L 270.185781 28.583333 
L 270.185781 28.583333 
L 270.185781 28.583333 
z
" clip-path="url(#p89a1994edd)" style="fill: #58789c; stroke: #000000; stroke-width: 0.4; stroke-linejoin: miter"/>
   </g>
   <g id="patch_47">
    <path d="M 270.185781 28.583333 
L 270.185781 28.583333 
L 270.185781 28.583333 
L 270.185781 28.583333 
z
" clip-path="url(#p89a1994edd)" style="fill: #d26968; stroke: #000000; stroke-width: 0.4; stroke-linejoin: miter"/>
   </g>
   <g id="patch_48">
    <path d="M 270.185781 154.1 
L 270.185781 21.2 
" style="fill: none; stroke: #000000; stroke-width: 0.6; stroke-linejoin: miter; stroke-linecap: square"/>
   </g>
   <g id="patch_49">
    <path d="M 424.765781 154.1 
L 424.765781 21.2 
" style="fill: none; stroke: #000000; stroke-width: 0.6; stroke-linejoin: miter; stroke-linecap: square"/>
   </g>
   <g id="patch_50">
    <path d="M 270.185781 154.1 
L 424.765781 154.1 
" style="fill: none; stroke: #000000; stroke-width: 0.6; stroke-linejoin: miter; stroke-linecap: square"/>
   </g>
   <g id="patch_51">
    <path d="M 270.185781 21.2 
L 424.765781 21.2 
" style="fill: none; stroke: #000000; stroke-width: 0.6; stroke-linejoin: miter; stroke-linecap: square"/>
   </g>
  </g>
  <g id="legend_1">
   <g id="patch_52">
    <path d="M 168.312656 16 
L 176.312656 16 
L 176.312656 10.4 
L 168.312656 10.4 
z
" style="fill: #58789c; stroke: #000000; stroke-width: 0.4; stroke-linejoin: miter"/>
   </g>
   <g id="text_20">
    <text style="font-size: 8px; font-family: 'Linux Libertine'; text-anchor: start; fill: #262626" x="182.712656" y="16" transform="rotate(-0 182.712656 16)">vanilla</text>
   </g>
   <g id="patch_53">
    <path d="M 212.713906 16 
L 220.713906 16 
L 220.713906 10.4 
L 212.713906 10.4 
z
" style="fill: #d26968; stroke: #000000; stroke-width: 0.4; stroke-linejoin: miter"/>
   </g>
   <g id="text_21">
    <text style="font-size: 8px; font-family: 'Linux Libertine'; text-anchor: start; fill: #262626" x="227.113906" y="16" transform="rotate(-0 227.113906 16)">turboquant</text>
   </g>
  </g>
 </g>
 <defs>
  <clipPath id="p5286beb4b3">
   <rect x="106.065781" y="21.2" width="154.58" height="132.9"/>
  </clipPath>
  <clipPath id="p89a1994edd">
   <rect x="270.185781" y="21.2" width="154.58" height="132.9"/>
  </clipPath>
 </defs>
</svg>
